<?xml version="1.0" standalone="no"?>
<!DOCTYPE svg PUBLIC "-//W3C//DTD SVG 20010904//EN"
 "http://www.w3.org/TR/2001/REC-SVG-20010904/DTD/svg10.dtd">
<svg version="1.0" xmlns="http://www.w3.org/2000/svg"
 width="842.000000pt" height="619.000000pt" viewBox="0 0 842.000000 619.000000"
 preserveAspectRatio="xMidYMid meet">

<g transform="translate(0.000000,619.000000) scale(0.100000,-0.100000)"
fill="#000000" stroke="none">
<path d="M5588 5733 c7 -3 16 -2 19 1 4 3 -2 6 -13 5 -11 0 -14 -3 -6 -6z"/>
<path d="M5641 5727 c-28 -14 -42 -41 -16 -31 9 4 15 3 14 -2 -3 -20 2 -28 9
-16 12 19 66 -3 58 -23 -7 -18 20 -21 28 -2 3 6 3 2 0 -10 -4 -16 -1 -23 10
-23 10 0 13 6 9 17 -6 15 -5 16 9 3 9 -8 12 -16 7 -18 -19 -8 -8 -23 12 -17
13 4 19 3 16 -2 -4 -6 28 -29 69 -53 88 -50 84 -34 43 -200 -19 -79 -19 -84
-4 -137 l15 -51 40 4 c24 2 40 -1 40 -7 0 -7 -11 -8 -30 -4 -19 4 -30 3 -30
-4 0 -6 8 -11 18 -12 11 0 13 -2 4 -6 -31 -12 146 -78 186 -69 17 4 22 3 14
-2 -17 -11 64 -22 171 -22 62 0 87 5 120 23 23 12 44 25 45 30 2 4 7 5 11 2 5
-2 8 6 7 18 -1 12 4 28 11 35 14 14 7 62 -10 73 -11 8 -2 40 10 38 28 -5 45 2
39 16 -3 9 1 16 9 16 24 2 29 4 50 17 18 12 17 13 -10 7 -29 -6 -29 -6 -10 10
14 11 16 18 8 21 -7 3 -13 16 -13 29 0 13 -6 25 -12 28 -8 2 -1 10 15 19 25
13 27 16 13 27 -9 8 -16 10 -16 6 0 -5 -9 0 -20 10 -11 10 -20 13 -20 7 0 -7
5 -12 10 -12 6 0 10 -4 10 -10 0 -17 -31 2 -40 25 -5 13 -21 26 -37 30 -15 3
-30 10 -33 13 -8 11 -110 64 -110 58 0 -3 -16 6 -36 19 -20 14 -43 25 -51 25
-7 0 -37 14 -67 30 -34 20 -60 28 -71 24 -12 -5 -16 -4 -12 3 4 6 -3 13 -16
17 -22 5 -171 20 -317 31 -41 3 -86 8 -100 10 -14 3 -36 -1 -49 -8z m87 -21
c-9 -8 -26 -11 -48 -7 l-35 5 40 7 c22 3 44 7 48 8 5 0 2 -5 -5 -13z m203
-388 c-4 -12 -13 -24 -20 -26 -9 -3 -9 2 0 22 15 32 32 35 20 4z m649 1 c0 -5
-9 -9 -20 -9 -11 0 -20 5 -20 11 0 5 5 7 10 4 6 -3 10 -1 10 5 0 6 5 8 10 5 6
-3 10 -10 10 -16z m-77 -146 c8 -39 -10 -53 -23 -19 -10 27 -6 46 9 46 5 0 11
-12 14 -27z m-37 -35 c-4 -28 -17 -39 -32 -27 -18 15 -18 33 1 26 8 -4 17 -2
20 3 8 14 14 12 11 -2z m-96 -68 c-8 -5 -22 -9 -30 -9 -10 0 -8 3 5 9 27 12
43 12 25 0z m60 -10 c-8 -5 -24 -9 -35 -9 -16 1 -16 2 5 9 35 11 48 11 30 0z"/>
<path d="M5675 5660 c3 -5 8 -10 11 -10 2 0 4 5 4 10 0 6 -5 10 -11 10 -5 0
-7 -4 -4 -10z"/>
<path d="M2853 5633 c3 -5 -41 -8 -96 -8 -117 0 -217 -6 -232 -14 -5 -3 -59
-6 -118 -7 -77 0 -111 -4 -117 -13 -4 -8 -9 -9 -11 -3 -3 6 -51 7 -139 1 -193
-12 -201 -14 -244 -43 -21 -14 -43 -26 -47 -26 -5 0 -5 -8 -2 -17 6 -16 5 -16
-10 -4 -15 12 -17 11 -17 -4 0 -12 -5 -15 -16 -11 -10 4 -26 -5 -44 -24 -15
-16 -37 -31 -49 -31 -38 -2 -42 -4 -50 -18 -5 -8 -14 -10 -21 -6 -8 5 -11 4
-6 -3 3 -6 -3 -12 -16 -15 -18 -3 -16 -5 8 -6 17 0 45 6 62 15 18 8 36 13 41
9 6 -3 38 1 73 9 35 7 95 17 133 21 39 4 75 11 82 17 7 5 17 7 23 3 6 -4 16
-2 23 3 7 5 37 12 67 15 61 6 150 26 165 37 6 5 27 8 47 8 20 0 51 7 68 15 29
15 60 14 60 -2 0 -4 -26 -20 -57 -36 -32 -17 -70 -38 -84 -47 -14 -10 -29 -15
-33 -11 -3 3 -6 1 -6 -5 0 -7 -9 -12 -20 -12 -11 0 -28 -8 -38 -18 -9 -9 -26
-16 -36 -14 -13 3 -16 0 -11 -9 5 -8 4 -10 -4 -5 -13 8 -53 -2 -47 -12 2 -4
-7 -8 -21 -9 -14 0 -29 -7 -34 -15 -5 -7 -9 -10 -9 -6 0 4 -19 -1 -42 -11 -24
-11 -81 -22 -128 -26 -197 -15 -393 -38 -520 -60 -109 -18 -154 -30 -166 -42
-8 -9 -18 -13 -21 -10 -3 4 -15 1 -27 -5 -11 -7 -28 -13 -38 -15 -31 -5 -123
-51 -103 -51 11 0 146 7 300 15 324 18 352 18 370 3 10 -8 23 -58 29 -112 1
-3 4 -10 9 -14 4 -4 7 -18 7 -30 0 -13 5 -26 10 -29 6 -4 8 -15 5 -25 -3 -10
-1 -40 5 -66 6 -27 14 -67 16 -89 8 -59 26 -81 81 -94 52 -12 269 -11 250 1
-7 4 0 8 16 8 16 0 26 -4 22 -10 -7 -11 90 -8 102 3 3 4 0 7 -7 7 -7 0 -10 3
-6 7 4 4 23 6 42 4 29 -2 34 1 34 18 0 12 5 21 11 21 5 0 8 -4 4 -9 -3 -5 -1
-12 5 -16 5 -3 10 1 10 10 0 12 6 15 19 10 11 -3 23 0 27 6 5 9 2 10 -9 6 -10
-3 -17 -2 -17 3 0 6 12 11 28 12 46 2 50 3 59 12 5 5 2 6 -6 1 -9 -5 -12 -4
-7 3 4 7 16 12 27 12 21 0 23 4 10 28 -6 12 -2 24 15 42 13 13 24 19 24 12 0
-10 5 -10 20 -2 23 13 25 30 6 73 -19 46 -51 150 -49 165 0 6 -3 12 -9 12 -5
0 -8 6 -7 13 4 33 -2 58 -13 51 -7 -4 -8 -3 -4 4 9 15 -35 153 -46 146 -4 -3
-5 2 -2 10 3 8 14 18 25 21 22 7 25 21 7 28 -10 3 -10 8 -2 16 6 6 19 9 28 5
14 -5 15 -9 5 -15 -8 -4 -11 -10 -9 -13 3 -2 29 10 58 28 29 18 49 36 45 40
-4 4 0 4 9 1 10 -4 29 1 45 13 15 10 73 43 128 72 132 70 136 72 164 93 l24
17 -42 0 c-23 0 -40 -3 -38 -7z m-843 -153 c-18 -12 -43 -13 -36 -2 2 4 15 8
28 9 18 2 19 0 8 -7z m-107 -31 c18 -1 24 -3 14 -6 -30 -8 -67 6 -67 25 1 16
1 16 11 0 6 -11 23 -18 42 -19z m517 -153 c0 -3 -4 -8 -10 -11 -5 -3 -10 -1
-10 4 0 6 5 11 10 11 6 0 10 -2 10 -4z m68 -291 c-3 -3 -9 2 -12 12 -6 14 -5
15 5 6 7 -7 10 -15 7 -18z m-4 -70 c-4 -8 -10 -15 -14 -15 -17 0 -20 19 -8 45
11 26 12 26 20 6 4 -12 5 -28 2 -36z m-57 -81 c-3 -3 -12 -4 -19 -1 -8 3 -5 6
6 6 11 1 17 -2 13 -5z m-67 -84 c0 -5 -5 -10 -11 -10 -5 0 -7 5 -4 10 3 6 8
10 11 10 2 0 4 -4 4 -10z m-533 -32 c-3 -8 -6 -5 -6 6 -1 11 2 17 5 13 3 -3 4
-12 1 -19z m-9 -43 c-3 -3 -9 2 -12 12 -6 14 -5 15 5 6 7 -7 10 -15 7 -18z
m407 5 c-3 -5 -14 -10 -23 -10 -15 0 -15 2 -2 10 20 13 33 13 25 0z m-248 -26
c-3 -3 -12 -4 -19 -1 -8 3 -5 6 6 6 11 1 17 -2 13 -5z"/>
<path d="M6695 5360 c3 -5 8 -10 11 -10 2 0 4 5 4 10 0 6 -5 10 -11 10 -5 0
-7 -4 -4 -10z"/>
<path d="M6666 5331 c-3 -5 1 -11 9 -15 9 -3 15 0 15 9 0 16 -16 20 -24 6z"/>
<path d="M6598 5273 c7 -3 16 -2 19 1 4 3 -2 6 -13 5 -11 0 -14 -3 -6 -6z"/>
<path d="M6945 5270 c3 -5 8 -10 11 -10 2 0 4 5 4 10 0 6 -5 10 -11 10 -5 0
-7 -4 -4 -10z"/>
<path d="M6648 5263 c-17 -4 -22 -17 -21 -50 1 -7 -3 -11 -7 -8 -7 4 -21 -35
-26 -70 0 -5 -6 -23 -12 -38 -7 -15 -15 -40 -19 -55 -6 -27 -6 -27 21 6 16 19
26 39 22 48 -4 10 -2 13 6 8 7 -5 9 0 6 14 -4 12 -3 22 1 22 3 0 15 24 25 53
18 47 27 79 23 76 -1 -1 -10 -3 -19 -6z"/>
<path d="M4500 5225 c7 -8 17 -15 22 -15 6 0 5 7 -2 15 -7 8 -17 15 -22 15 -6
0 -5 -7 2 -15z"/>
<path d="M6823 5223 c9 -2 23 -2 30 0 6 3 -1 5 -18 5 -16 0 -22 -2 -12 -5z"/>
<path d="M3805 5167 c-430 -227 -846 -557 -1055 -833 -214 -284 -310 -587
-310 -979 0 -168 15 -276 56 -407 57 -182 194 -412 305 -513 l33 -30 -30 35
c-103 122 -191 296 -231 456 -25 98 -27 126 -27 274 1 195 18 303 74 471 49
147 116 281 220 439 108 163 189 265 362 455 178 195 445 441 632 582 131 99
135 103 99 103 -15 0 -73 -24 -128 -53z"/>
<path d="M4540 5200 c0 -5 5 -10 10 -10 6 0 10 5 10 10 0 6 -4 10 -10 10 -5 0
-10 -4 -10 -10z"/>
<path d="M4564 5189 c-3 -6 -2 -14 2 -18 5 -4 61 -47 124 -96 356 -275 707
-604 875 -820 206 -265 330 -514 382 -772 24 -118 23 -373 -2 -493 -9 -47 -18
-92 -19 -100 -1 -8 -7 -24 -13 -35 -6 -11 -16 -38 -23 -60 -28 -88 -120 -244
-208 -355 -20 -25 -29 -39 -19 -31 21 17 117 136 117 146 0 3 11 21 25 39 34
45 139 268 160 341 55 191 74 378 56 571 -33 374 -159 657 -430 963 -185 209
-578 499 -934 689 -88 47 -83 46 -93 31z"/>
<path d="M6782 5033 c-5 -10 -7 -24 -4 -32 2 -7 -1 -17 -9 -21 -9 -6 -10 -12
-1 -22 7 -9 8 -19 2 -28 -8 -13 -10 -12 -10 3 0 9 -4 17 -10 17 -12 0 -9 -22
5 -32 5 -4 2 -14 -8 -26 -9 -10 -17 -30 -17 -44 0 -29 24 -56 35 -38 6 9 -1
14 -17 11 -12 -2 -9 47 3 55 8 4 9 -1 4 -17 -4 -13 -4 -21 0 -17 4 3 11 26 16
50 6 23 17 50 24 59 19 20 31 79 17 79 -6 0 -13 -6 -15 -12 -4 -8 -6 -7 -6 4
-1 9 5 19 12 21 9 4 9 6 0 6 -7 1 -16 -7 -21 -16z m9 -70 c-8 -15 -10 -15 -11
-2 0 17 10 32 18 25 2 -3 -1 -13 -7 -23z"/>
<path d="M6513 4984 c-4 -10 -13 -14 -27 -10 -21 5 -21 5 -1 -10 19 -15 19
-15 -6 -9 -29 7 -64 -18 -55 -41 3 -9 -1 -11 -12 -7 -9 3 -14 3 -10 -2 4 -4 3
-17 -3 -28 -9 -15 -8 -18 3 -12 7 3 6 0 -4 -7 -12 -11 -15 -22 -9 -48 l8 -35
10 35 10 35 4 -37 c3 -21 1 -38 -3 -38 -14 0 -9 -18 7 -24 16 -6 130 92 120
102 -3 3 4 11 15 19 22 15 28 39 8 27 -7 -4 -5 1 4 12 19 22 18 56 -3 62 -11
3 -12 2 -1 -6 11 -7 9 -10 -6 -14 -14 -4 -19 -2 -16 7 3 7 -2 15 -11 19 -9 3
-13 10 -10 16 3 5 4 10 0 10 -3 0 -8 -7 -12 -16z m13 -40 c1 -9 0 -13 -4 -10
-3 4 -7 14 -8 22 -1 9 0 13 4 10 3 -4 7 -14 8 -22z m14 -44 c0 -5 -5 -10 -11
-10 -5 0 -7 5 -4 10 3 6 8 10 11 10 2 0 4 -4 4 -10z m-50 -80 c0 -5 -4 -10
-10 -10 -5 0 -10 5 -10 10 0 6 5 10 10 10 6 0 10 -4 10 -10z m-40 -20 c0 -5
-4 -10 -10 -10 -5 0 -10 5 -10 10 0 6 5 10 10 10 6 0 10 -4 10 -10z"/>
<path d="M6702 4837 c2 -19 6 -33 11 -30 11 6 9 51 -3 58 -6 4 -9 -7 -8 -28z"/>
<path d="M2486 4834 c-4 -10 -1 -14 6 -12 15 5 23 28 10 28 -5 0 -13 -7 -16
-16z"/>
<path d="M6733 4777 c0 -8 6 -14 13 -14 7 0 10 6 7 14 -3 7 -8 13 -12 13 -4 0
-8 -6 -8 -13z"/>
<path d="M6400 4726 c0 -9 5 -16 10 -16 6 0 10 4 10 9 0 6 -4 13 -10 16 -5 3
-10 -1 -10 -9z"/>
<path d="M476 4618 c4 -24 15 -69 25 -100 56 -171 119 -255 236 -316 106 -55
313 -110 313 -83 0 6 -3 11 -7 11 -17 0 -104 90 -180 185 -44 55 -101 116
-126 135 -45 34 -60 55 -34 48 40 -10 382 -194 425 -229 61 -48 64 -41 32 63
-25 83 -71 136 -158 181 -77 41 -264 98 -399 122 -48 9 -98 18 -111 21 -21 4
-22 2 -16 -38z"/>
<path d="M2024 4653 c3 -4 28 -8 54 -9 35 -1 41 0 22 6 -32 10 -86 12 -76 3z"/>
<path d="M7690 4630 c-19 -5 -71 -12 -115 -15 -191 -15 -266 -44 -360 -138
-60 -60 -114 -152 -131 -219 -7 -33 -22 -37 166 54 63 31 150 72 193 92 90 41
164 88 227 145 48 44 67 52 51 22 -17 -31 -113 -113 -208 -179 -81 -55 -213
-181 -213 -203 0 -5 -6 -9 -13 -9 -14 0 -47 -31 -47 -43 0 -25 204 13 275 51
131 70 214 209 231 385 7 73 8 72 -56 57z"/>
<path d="M6761 4411 c-10 -6 -11 -13 -2 -29 6 -11 11 -27 10 -34 0 -7 -7 2
-15 20 -16 37 -36 40 -99 16 -22 -8 -51 -19 -65 -24 -100 -35 -166 -62 -168
-70 -2 -6 -7 -8 -12 -5 -12 7 -81 -35 -74 -46 3 -5 -1 -7 -8 -4 -7 2 -22 -2
-33 -11 -17 -13 -18 -16 -5 -25 12 -8 11 -9 -6 -7 -11 2 -21 -1 -22 -5 -1 -5
-12 -17 -26 -28 -13 -10 -28 -34 -31 -52 -4 -17 -12 -38 -19 -46 -6 -8 -12
-24 -13 -35 -1 -12 -5 -34 -8 -51 -6 -27 -5 -28 8 -13 8 10 17 15 20 11 10 -9
9 -43 0 -42 -33 5 -46 -24 -21 -49 9 -9 9 -12 0 -12 -7 0 -12 -10 -11 -22 0
-15 3 -18 6 -8 4 8 17 23 29 33 13 10 21 24 17 32 -3 9 1 15 11 15 9 0 16 8
16 19 0 11 5 23 12 27 8 5 9 2 5 -9 -3 -10 -2 -17 3 -17 6 0 10 12 10 26 0 21
4 24 19 19 14 -4 25 1 37 20 9 14 27 28 40 31 13 3 24 12 24 20 0 8 5 14 11
14 5 0 7 -6 3 -12 -5 -11 11 6 57 60 6 8 21 11 33 8 12 -3 28 -1 36 4 11 7 8
10 -12 15 -15 4 -32 4 -37 0 -6 -3 -11 -1 -11 4 0 6 5 11 11 11 5 0 7 5 4 10
-3 6 3 10 14 10 12 0 20 -5 19 -11 -2 -6 7 -15 20 -20 13 -5 21 -5 18 0 -3 4
11 17 32 28 20 11 36 26 34 32 -1 7 2 10 8 6 6 -4 33 16 59 44 27 28 51 51 54
51 3 0 5 -23 4 -50 -1 -28 -3 -46 -5 -40 -2 5 -9 10 -16 10 -18 0 -112 -110
-108 -128 2 -8 -1 -11 -8 -7 -6 4 -23 -6 -39 -24 -15 -17 -42 -47 -59 -66 -18
-19 -31 -38 -30 -42 2 -5 -1 -9 -7 -11 -15 -4 -85 -75 -85 -86 0 -5 10 -1 23
10 l22 19 -19 -22 c-10 -13 -22 -20 -27 -18 -12 8 -51 -53 -43 -66 5 -8 3 -9
-5 -5 -8 5 -11 3 -10 -5 1 -8 -3 -25 -9 -39 -6 -14 -11 -18 -12 -10 -1 23 -61
-121 -66 -160 -10 -71 -9 -85 4 -83 6 2 12 0 12 -5 0 -4 20 -6 45 -4 25 2 45
9 45 14 0 6 11 7 26 4 20 -5 33 -1 52 16 14 13 22 17 17 9 -6 -10 -2 -11 16
-6 43 14 89 42 81 50 -4 5 -1 5 6 1 8 -5 20 0 31 13 10 12 23 21 30 21 6 0 11
5 11 10 0 6 7 10 15 10 8 0 15 7 15 15 0 8 6 15 14 15 19 0 66 57 66 80 0 9 6
23 14 29 7 6 16 25 20 42 3 17 10 28 15 25 12 -8 28 60 41 170 11 95 -1 285
-21 336 -6 15 -8 32 -4 37 7 13 -3 51 -13 51 -4 0 -13 -4 -21 -9z m6 -113 c-3
-8 -6 -5 -6 6 -1 11 2 17 5 13 3 -3 4 -12 1 -19z m-57 -114 c0 -8 -4 -12 -10
-9 -5 3 -10 10 -10 16 0 5 5 9 10 9 6 0 10 -7 10 -16z m-435 -34 c-3 -5 -1
-19 5 -30 6 -12 7 -20 1 -20 -12 0 -24 37 -16 50 3 5 8 10 11 10 3 0 2 -4 -1
-10z m475 0 c0 -5 -4 -10 -10 -10 -5 0 -10 5 -10 10 0 6 5 10 10 10 6 0 10 -4
10 -10z m-84 -22 c4 -7 4 -10 -1 -6 -4 4 -14 3 -22 -3 -8 -8 -13 -8 -13 -1 0
6 6 13 13 15 6 3 13 6 14 6 1 1 5 -5 9 -11z m-444 -68 c-2 -16 -6 -30 -8 -30
-2 0 -4 14 -4 30 0 17 4 30 8 30 5 0 7 -13 4 -30z m78 5 c0 -11 -7 -12 -39 -6
-2 1 2 8 9 16 14 16 30 11 30 -10z m-50 -64 c0 -6 -4 -13 -10 -16 -5 -3 -10 1
-10 9 0 9 5 16 10 16 6 0 10 -4 10 -9z m-53 -87 c-3 -3 -12 -4 -19 -1 -8 3 -5
6 6 6 11 1 17 -2 13 -5z m521 -158 c-7 -8 -15 -12 -17 -11 -5 6 10 25 20 25 5
0 4 -6 -3 -14z m-35 -47 c-8 -8 -13 -7 -18 2 -5 8 -4 10 3 5 7 -4 12 -2 12 5
0 7 3 9 7 6 4 -4 2 -12 -4 -18z m-426 -201 c-3 -8 -6 -5 -6 6 -1 11 2 17 5 13
3 -3 4 -12 1 -19z m155 10 c-9 -9 -15 -9 -24 0 -9 9 -7 12 12 12 19 0 21 -3
12 -12z"/>
<path d="M1479 4408 c0 -2 -2 -10 -4 -18 -2 -8 -9 -33 -15 -55 -7 -22 -14 -53
-17 -70 -3 -16 -9 -32 -14 -35 -11 -7 -14 -76 -5 -120 l6 -35 -15 30 c-8 17
-13 21 -10 11 3 -10 0 -34 -6 -53 -13 -40 -18 -223 -6 -223 5 0 7 -8 6 -17 -1
-10 0 -27 1 -38 l1 -20 9 20 c7 16 9 17 9 3 1 -9 -4 -20 -10 -24 -8 -5 -6 -10
5 -16 9 -5 16 -17 16 -26 0 -15 2 -15 11 -2 8 12 10 12 8 -5 -3 -39 1 -46 32
-57 22 -8 29 -15 26 -29 -3 -12 0 -16 9 -12 8 3 14 10 14 16 0 6 3 8 6 5 3 -4
1 -15 -5 -26 -8 -16 -7 -23 7 -33 15 -12 16 -12 7 1 -7 11 -5 11 6 -1 11 -12
20 -14 33 -7 10 5 20 7 23 4 4 -3 1 -6 -5 -6 -7 0 -12 -10 -12 -22 0 -12 3
-19 6 -16 3 4 14 -2 25 -13 11 -11 25 -16 35 -12 12 4 15 3 10 -5 -4 -7 0 -14
11 -18 10 -3 27 -10 38 -16 13 -7 20 -7 23 0 1 5 15 -1 29 -14 18 -16 33 -22
46 -18 14 4 17 3 12 -6 -6 -9 1 -10 25 -5 25 5 31 4 25 -5 -8 -13 16 -11 60 5
16 5 17 5 5 -4 -12 -9 -10 -11 12 -11 37 0 58 10 58 27 0 11 3 13 13 5 12 -10
45 -15 77 -13 15 1 16 7 11 74 -1 11 -6 15 -13 11 -7 -5 -9 -2 -5 8 7 19 -12
88 -25 88 -4 0 -8 8 -8 18 0 10 -8 27 -19 38 -10 11 -22 31 -26 43 -4 15 -13
21 -27 19 -12 -2 -23 3 -26 11 -3 10 0 12 11 8 14 -5 15 -3 5 13 -7 10 -16 16
-20 14 -4 -3 -8 1 -8 8 0 8 -33 49 -72 91 -40 43 -78 83 -83 90 -6 6 -28 33
-49 59 -21 26 -42 45 -47 42 -5 -3 -7 1 -4 8 5 16 -31 62 -43 54 -5 -3 -7 5
-6 17 1 12 3 28 3 35 1 17 31 15 31 -3 0 -8 18 -26 41 -41 26 -16 39 -30 35
-40 -3 -7 -2 -13 2 -11 4 1 7 -2 7 -6 0 -9 69 -54 72 -47 2 3 10 -5 19 -18 9
-14 22 -21 31 -18 8 3 12 2 8 -3 -7 -13 62 -54 77 -45 8 5 9 2 5 -9 -4 -11 1
-18 14 -22 11 -4 29 -16 41 -28 11 -12 18 -17 15 -11 -7 12 21 29 31 19 3 -3
0 -5 -6 -5 -6 0 -10 -8 -9 -19 1 -12 7 -17 19 -13 11 2 18 1 17 -4 -4 -15 13
-44 21 -39 14 9 40 -24 34 -43 -5 -14 -4 -14 4 -2 6 8 8 18 6 22 -3 4 -2 14 2
20 6 9 11 5 16 -12 5 -15 6 -1 3 34 -3 32 -15 81 -27 109 -18 42 -23 47 -30
31 -6 -15 -7 -13 -5 9 3 15 0 27 -4 27 -5 0 -9 7 -9 16 0 11 -5 14 -16 10 -9
-4 -14 -1 -12 5 2 7 -10 27 -26 45 -21 25 -32 31 -38 22 -5 -9 -8 -8 -8 5 0
11 -14 24 -35 33 -20 8 -34 18 -31 23 3 4 -11 7 -32 6 -20 -2 -31 -1 -24 2 22
8 13 25 -10 19 -13 -3 -17 -3 -10 0 22 10 13 22 -33 44 -25 12 -48 26 -51 31
-3 6 -15 9 -27 7 -14 -2 -21 2 -19 11 2 8 -3 11 -13 8 -8 -4 -15 -2 -15 3 0 6
-5 10 -11 10 -6 0 -17 7 -25 15 -9 8 -21 15 -27 15 -7 0 -6 -4 3 -10 21 -13 6
-12 -25 2 -14 6 -25 15 -25 20 0 4 -7 8 -15 8 -9 0 -25 9 -37 20 -12 10 -25
17 -30 14 -4 -3 -8 0 -8 5 0 9 -28 17 -31 9z m101 -68 c0 -5 -4 -10 -10 -10
-5 0 -10 5 -10 10 0 6 5 10 10 10 6 0 10 -4 10 -10z m130 -103 c0 -4 -9 -3
-20 3 -11 6 -17 16 -13 25 5 13 7 13 19 -2 7 -10 14 -22 14 -26z m65 23 c3 -5
1 -10 -4 -10 -6 0 -11 5 -11 10 0 6 2 10 4 10 3 0 8 -4 11 -10z m-338 -117
c-3 -10 -5 -2 -5 17 0 19 2 27 5 18 2 -10 2 -26 0 -35z m20 15 c-3 -8 -6 -5
-6 6 -1 11 2 17 5 13 3 -3 4 -12 1 -19z m170 -70 c-3 -8 -6 -5 -6 6 -1 11 2
17 5 13 3 -3 4 -12 1 -19z m363 6 c0 -2 -7 -4 -15 -4 -8 0 -15 4 -15 10 0 5 7
7 15 4 8 -4 15 -8 15 -10z m-573 -76 c-3 -7 -5 -2 -5 12 0 14 2 19 5 13 2 -7
2 -19 0 -25z m737 -83 c3 -9 0 -15 -9 -15 -9 0 -12 6 -9 15 4 8 7 15 9 15 2 0
5 -7 9 -15z m-34 -21 c0 -14 -4 -23 -9 -20 -5 3 -7 15 -4 26 7 28 13 25 13 -6z
m-61 0 c-14 -17 -25 -18 -32 -1 -3 7 5 13 20 13 19 2 22 -1 12 -12z m111 -46
c0 -12 -3 -18 -7 -14 -10 10 -11 46 -1 40 4 -3 8 -15 8 -26z m-10 -48 c0 -15
-5 -12 -26 11 -19 22 -19 22 4 10 12 -6 22 -16 22 -21z m-141 -173 c0 -21 -1
-21 -9 -2 -12 28 -12 37 0 30 6 -3 10 -16 9 -28z m78 -179 c-3 -7 -5 -2 -5 12
0 14 2 19 5 13 2 -7 2 -19 0 -25z m-184 -25 c-7 -2 -19 -2 -25 0 -7 3 -2 5 12
5 14 0 19 -2 13 -5z m144 1 c-3 -3 -12 -4 -19 -1 -8 3 -5 6 6 6 11 1 17 -2 13
-5z"/>
<path d="M3735 4287 c-72 -19 -109 -41 -148 -89 -50 -61 -67 -110 -67 -187 0
-172 79 -254 336 -351 100 -38 134 -77 134 -152 0 -41 -5 -54 -33 -84 -59 -65
-166 -67 -299 -6 -112 50 -142 37 -155 -68 -7 -59 2 -72 66 -104 177 -89 434
-65 565 53 16 14 41 53 57 86 25 51 29 72 29 144 0 113 -14 154 -75 216 -50
52 -110 85 -278 155 -92 39 -117 66 -117 124 0 34 6 48 29 70 25 24 40 29 101
34 66 4 75 2 146 -32 72 -36 76 -37 100 -21 29 19 54 71 54 113 0 36 -23 57
-91 84 -67 26 -275 35 -354 15z"/>
<path d="M4429 4265 c-15 -8 -32 -29 -38 -46 -18 -51 -15 -890 3 -933 37 -88
145 -88 182 0 10 24 14 83 14 219 l0 185 168 0 c228 0 262 12 262 89 0 60 -19
65 -233 71 l-192 5 -3 133 -3 132 218 0 c235 0 258 5 280 52 16 31 1 83 -27
98 -11 6 -139 10 -312 10 -235 -1 -298 -4 -319 -15z"/>
<path d="M6464 4105 c-18 -13 -18 -14 4 -8 12 3 25 9 28 14 8 14 -10 11 -32
-6z"/>
<path d="M7270 3789 c-134 -19 -232 -83 -283 -185 -28 -56 -91 -234 -84 -240
2 -2 30 7 63 20 87 36 164 54 348 81 170 25 239 46 363 109 112 56 123 47 33
-27 -81 -65 -177 -125 -335 -207 -168 -87 -225 -120 -225 -129 0 -25 162 -71
247 -71 65 0 175 28 243 62 80 39 160 118 200 199 30 59 91 235 103 296 6 30
5 31 -41 42 -82 18 -165 31 -308 46 -150 16 -238 17 -324 4z"/>
<path d="M625 3649 c-191 -32 -290 -52 -303 -58 -9 -5 -5 -18 18 -47 18 -21
37 -42 45 -46 7 -4 99 -10 206 -13 322 -9 616 -47 700 -90 37 -19 36 -13 -2
46 -40 63 -135 150 -193 179 -113 54 -270 64 -471 29z"/>
<path d="M2701 3507 c-1 -10 -5 -16 -10 -13 -5 3 -12 -20 -16 -52 -5 -31 -10
-66 -12 -77 -14 -78 -1 -339 21 -413 3 -9 12 -43 21 -75 9 -31 21 -55 26 -52
5 3 6 -1 3 -10 -4 -8 -2 -21 3 -28 6 -6 18 -35 28 -64 10 -29 21 -50 25 -48 3
2 7 -6 7 -18 2 -25 40 -60 56 -50 6 3 7 1 3 -6 -4 -6 -12 -8 -18 -5 -12 8 -6
-5 24 -49 11 -15 24 -24 30 -21 7 4 8 2 4 -4 -4 -7 10 -31 34 -56 37 -39 44
-43 73 -36 58 13 152 45 155 52 2 4 10 4 18 1 8 -3 14 -1 14 5 0 6 10 8 22 4
14 -3 19 -2 14 6 -5 8 0 12 13 12 16 0 3 18 -54 76 -41 41 -75 80 -75 85 0 5
-5 8 -11 6 -6 -1 -20 14 -31 33 -11 19 -38 56 -59 81 -22 26 -39 50 -39 54 0
4 -10 21 -22 38 -43 60 -124 216 -142 275 -4 12 -11 22 -16 22 -5 0 -7 6 -4
14 3 8 1 17 -5 21 -6 3 -11 14 -11 23 0 9 -7 29 -14 44 -8 16 -14 36 -14 45 1
21 -21 136 -33 173 -5 17 -8 19 -8 7z"/>
<path d="M435 3463 c-19 -13 -14 -19 80 -111 55 -53 122 -112 149 -129 112
-74 245 -99 377 -69 77 17 144 50 134 65 -3 5 -29 17 -58 27 -28 9 -108 45
-177 79 -150 75 -222 98 -358 115 -57 7 -109 18 -116 25 -10 10 -16 10 -31 -2z"/>
<path d="M2038 3413 c7 -3 16 -2 19 1 4 3 -2 6 -13 5 -11 0 -14 -3 -6 -6z"/>
<path d="M5781 3344 c0 -11 3 -14 6 -6 3 7 2 16 -1 19 -3 4 -6 -2 -5 -13z"/>
<path d="M5766 3303 c-4 -9 -2 -21 4 -27 7 -7 10 -2 10 17 0 31 -5 34 -14 10z"/>
<path d="M5752 3235 c-26 -30 -27 -41 -7 -49 11 -4 15 2 15 23 0 16 6 31 13
34 6 2 9 7 6 11 -3 3 -15 -5 -27 -19z"/>
<path d="M5710 3136 c0 -8 4 -17 9 -20 5 -4 7 3 4 14 -6 23 -13 26 -13 6z"/>
<path d="M6385 3138 c-45 -17 -78 -39 -129 -86 -53 -49 -58 -58 -16 -37 95 49
137 -16 127 -203 -7 -145 21 -253 114 -445 85 -174 159 -243 273 -254 68 -6
357 30 477 61 136 34 235 88 313 170 l39 41 -59 7 c-86 11 -187 41 -192 57 -4
11 2 12 24 7 120 -28 242 -13 326 41 l41 25 -65 22 c-41 14 -100 47 -167 96
-274 198 -333 236 -493 317 -153 77 -209 95 -308 98 -54 2 -86 8 -89 16 -2 6
-16 25 -31 42 -24 28 -34 31 -91 34 -35 1 -77 -3 -94 -9z"/>
<path d="M5759 3123 c0 -10 -2 -26 -4 -36 -2 -12 1 -17 10 -13 13 5 15 -10 2
-30 -10 -16 4 -26 19 -13 10 8 10 17 0 47 -7 20 -11 43 -9 50 3 6 0 12 -6 12
-6 0 -11 -8 -12 -17z"/>
<path d="M5686 3122 c-4 -7 -2 -12 3 -12 6 0 11 -9 11 -20 0 -22 -15 -27 -23
-7 -3 6 -6 3 -6 -9 -1 -30 -24 -73 -41 -76 -12 -3 -10 -8 8 -23 12 -11 22 -23
22 -28 0 -5 -8 -1 -17 9 -17 16 -18 16 -21 1 -2 -9 -8 -17 -13 -17 -6 0 -7 5
-3 12 4 7 3 8 -4 4 -6 -4 -8 -14 -5 -23 4 -11 3 -14 -5 -9 -7 4 -12 1 -12 -8
0 -9 -5 -16 -11 -16 -6 0 -8 -7 -5 -16 3 -8 2 -13 -3 -10 -4 3 -14 -7 -22 -22
-7 -15 -21 -35 -31 -45 -10 -10 -16 -22 -13 -28 4 -5 0 -9 -8 -9 -17 0 -47
-42 -47 -65 0 -8 -5 -14 -12 -13 -7 2 -17 -7 -23 -19 -5 -13 -17 -23 -25 -24
-10 0 -11 -2 -2 -6 22 -9 13 -25 -10 -17 -20 6 -21 5 -10 -9 11 -13 10 -15 -9
-10 -15 4 -20 2 -15 -5 7 -12 -14 -52 -28 -52 -4 0 -3 7 4 15 15 18 -1 20 -18
3 -18 -18 -15 -26 16 -43 15 -9 18 -13 7 -10 -49 17 -55 17 -55 1 0 -15 37
-22 95 -18 16 2 17 0 5 -8 -8 -5 -26 -7 -40 -4 l-25 4 23 -10 c13 -5 28 -8 32
-5 5 3 11 1 14 -4 6 -9 82 -25 103 -22 6 1 14 -3 18 -9 7 -11 45 -14 45 -2 0
4 14 16 30 27 17 11 28 25 26 30 -2 6 5 21 15 34 11 13 19 20 19 15 0 -4 -8
-17 -17 -28 -13 -15 -10 -14 10 4 15 13 25 30 22 38 -3 8 0 10 7 6 8 -5 9 0 5
15 -4 17 -3 20 8 11 10 -8 14 -5 18 13 4 12 4 34 1 47 l-5 25 12 -25 11 -25
20 39 c11 22 21 44 23 50 1 6 7 24 14 41 8 20 9 31 2 33 -6 2 -1 12 11 21 15
13 22 31 24 62 2 24 4 45 5 47 6 8 4 29 -5 41 -8 11 -8 13 0 8 6 -3 11 0 11 8
0 8 -3 12 -7 10 -8 -5 -35 12 -36 22 0 4 -4 26 -9 48 -7 32 -9 36 -15 20 -8
-20 -8 -20 -15 0 -18 53 -22 59 -29 47z m18 -110 c3 -5 -1 -9 -9 -9 -8 0 -12
4 -9 9 3 4 7 8 9 8 2 0 6 -4 9 -8z m26 -26 c0 -11 -19 -15 -25 -6 -3 5 1 10 9
10 9 0 16 -2 16 -4z m-82 -71 c-3 -3 -9 2 -12 12 -6 14 -5 15 5 6 7 -7 10 -15
7 -18z m100 -20 c1 -14 -2 -25 -7 -25 -5 0 -11 11 -13 25 -3 15 -1 25 6 25 6
0 13 -11 14 -25z m19 -7 c-3 -8 -6 -5 -6 6 -1 11 2 17 5 13 3 -3 4 -12 1 -19z
m-15 -60 c-8 -8 -9 -4 -5 13 4 13 8 18 11 10 2 -7 -1 -18 -6 -23z m-282 -118
c0 -5 -4 -10 -10 -10 -5 0 -10 5 -10 10 0 6 5 10 10 10 6 0 10 -4 10 -10z"/>
<path d="M1789 3106 c-20 -7 -49 -22 -65 -33 -16 -11 -67 -40 -114 -63 -76
-38 -95 -43 -185 -50 -199 -16 -379 -105 -630 -309 -106 -86 -183 -131 -224
-131 -15 0 -32 -4 -40 -9 -11 -7 -7 -14 20 -30 62 -38 125 -51 256 -51 117 0
286 25 403 60 42 12 98 13 85 1 -6 -4 -48 -24 -95 -44 -210 -88 -357 -119
-478 -99 -36 6 -67 10 -68 9 -7 -7 67 -88 115 -127 156 -126 439 -202 583
-156 86 28 300 177 404 281 131 131 127 120 134 371 5 176 9 215 23 237 23 35
59 43 110 24 l42 -16 -59 53 c-61 56 -130 96 -162 96 -10 -1 -35 -7 -55 -14z"/>
<path d="M4130 2600 c-41 -10 -92 -19 -112 -19 -20 -1 -39 -5 -42 -9 -3 -5
-18 -9 -34 -10 -17 0 -47 -5 -68 -10 -22 -5 -55 -10 -74 -11 -19 -1 -62 -8
-95 -17 -33 -8 -96 -22 -140 -30 -44 -8 -135 -28 -201 -44 -67 -17 -130 -30
-140 -30 -16 0 -17 -2 -4 -11 12 -9 11 -10 -7 -6 -13 3 -44 -2 -70 -10 -27 -8
-59 -17 -72 -19 -13 -3 -40 -12 -60 -21 -20 -9 -40 -17 -46 -18 -30 -4 -65
-18 -65 -25 0 -5 -8 -8 -17 -8 -25 2 -93 -41 -93 -58 0 -8 -7 -14 -16 -14 -9
0 -12 -5 -8 -12 5 -10 3 -10 -7 0 -12 11 -12 14 1 23 11 8 9 8 -10 3 -14 -4
-33 -8 -42 -8 -9 0 -14 -4 -12 -8 3 -4 0 -8 -6 -8 -6 0 -8 -4 -5 -10 3 -5 -1
-10 -9 -10 -9 0 -16 4 -16 10 0 5 -6 7 -14 4 -8 -3 -13 -14 -11 -25 2 -11 0
-17 -6 -13 -6 3 -22 2 -37 -2 l-27 -7 30 -7 c30 -8 29 -8 -7 -9 -21 0 -38 3
-38 8 0 4 -16 3 -35 -3 -20 -6 -33 -16 -31 -23 3 -6 -1 -14 -9 -17 -8 -3 -15
-1 -17 4 -2 5 -12 2 -23 -7 -18 -14 -18 -15 -1 -9 10 3 24 2 30 -3 7 -6 23 -7
36 -4 22 6 23 7 4 14 -17 7 -17 8 4 8 12 1 25 8 28 16 5 11 10 13 19 5 15 -12
117 8 109 22 -3 4 10 9 28 10 77 4 95 6 138 17 108 26 185 39 245 41 32 1 36
3 20 10 -14 6 -1 8 40 5 32 -2 54 -1 47 3 -6 5 99 8 233 8 135 1 245 -3 245
-7 0 -5 6 -6 13 -4 17 7 145 -21 162 -35 8 -6 19 -9 24 -6 5 4 12 2 16 -4 3
-5 17 -10 30 -10 13 0 31 -3 40 -6 13 -6 14 -9 3 -16 -9 -7 -7 -8 10 -5 12 3
22 1 22 -5 0 -5 4 -6 10 -3 5 3 18 1 27 -4 14 -8 15 -10 3 -11 -8 0 -2 -7 14
-15 32 -17 39 -19 33 -7 -3 4 6 7 19 7 13 0 24 -3 24 -7 0 -4 14 -16 30 -28
l31 -22 -7 26 c-4 16 -2 26 5 26 13 0 14 -30 2 -64 -8 -19 -6 -28 6 -38 15
-11 16 -11 10 5 -5 14 -1 17 21 16 17 -1 21 -3 9 -6 -16 -4 -16 -6 3 -30 11
-14 20 -31 20 -37 0 -6 -9 0 -20 14 -11 14 -20 21 -20 16 0 -14 58 -75 65 -68
4 4 2 -3 -6 -15 l-13 -22 -31 26 c-16 15 -37 34 -45 43 -22 23 -81 63 -85 58
-6 -6 8 -24 30 -36 17 -10 17 -11 3 -12 -19 0 -50 38 -42 52 3 4 -7 13 -23 18
-15 6 -39 16 -53 24 -14 7 -42 16 -63 20 -23 4 -35 11 -31 18 4 7 -1 8 -16 3
-17 -5 -21 -4 -15 5 5 9 4 11 -4 6 -6 -4 -18 -3 -26 4 -8 6 -34 12 -58 13 -25
1 -43 6 -40 11 4 5 2 6 -4 3 -10 -6 -149 6 -222 20 -26 4 -32 3 -26 -7 6 -9 1
-10 -16 -5 -29 10 -220 14 -214 6 2 -4 -41 -7 -96 -8 -54 -1 -109 -5 -121 -8
-41 -14 11 -29 102 -30 264 -5 247 -3 276 -30 15 -14 22 -25 15 -25 -7 0 -11
-27 -11 -80 0 -93 0 -93 110 -103 36 -4 90 -13 120 -22 67 -18 63 -18 54 -2
-4 6 2 4 12 -5 11 -10 35 -21 54 -24 36 -8 57 -22 102 -67 16 -17 32 -25 39
-21 7 4 9 3 5 -4 -9 -15 15 -64 29 -58 6 2 20 -3 30 -11 20 -16 20 -16 0 -9
-12 5 -16 4 -10 -2 10 -9 92 -32 115 -32 6 0 8 5 5 10 -3 6 -1 10 5 10 6 0 13
-6 16 -14 4 -12 31 -14 141 -11 82 1 139 7 146 14 6 6 18 11 26 10 11 0 10 -3
-4 -9 -48 -21 30 -4 85 18 8 3 20 7 25 7 35 6 63 28 80 64 22 44 112 106 173
117 23 5 30 9 21 15 -8 5 0 8 21 7 28 -1 129 16 230 37 8 2 18 4 21 4 4 1 8
43 11 95 3 64 8 98 18 107 12 11 56 14 215 13 110 -1 234 -7 275 -13 102 -14
137 -13 76 3 -26 8 -57 11 -67 9 -11 -3 -19 0 -19 6 0 6 -3 10 -7 9 -7 -1 -78
7 -163 19 -41 6 -116 11 -250 19 -80 4 -141 1 -357 -19 -11 -1 -19 -5 -18 -8
2 -3 -17 -6 -43 -7 -26 0 -61 -6 -77 -13 -17 -7 -37 -14 -45 -15 -50 -9 -200
-80 -200 -96 0 -4 -6 -8 -14 -8 -20 0 -92 -60 -88 -74 2 -6 0 -8 -4 -4 -4 4
-14 3 -21 -4 -18 -14 -36 8 -27 32 4 8 5 22 4 30 -6 39 3 196 11 204 5 6 9 -3
9 -24 0 -23 3 -31 10 -24 6 6 14 60 19 120 6 75 9 91 10 52 1 -55 2 -58 26
-58 14 0 28 -7 31 -15 11 -27 24 -16 24 20 0 33 2 35 34 35 25 0 35 5 39 20 4
15 14 20 40 20 20 0 38 4 41 9 10 15 141 24 165 12 23 -13 29 -55 9 -67 -8 -5
-6 -10 8 -15 15 -6 14 -8 -10 -8 -47 -1 -20 -15 29 -16 50 0 55 7 23 29 -18
13 -19 16 -6 16 9 0 21 -7 26 -16 8 -15 40 -17 268 -18 143 -1 267 -6 277 -10
9 -5 24 -6 32 -2 8 3 15 2 15 -3 0 -4 17 -9 38 -10 70 -5 77 -6 88 -13 6 -4
37 -10 69 -13 32 -3 67 -10 77 -16 11 -6 26 -8 34 -5 8 3 14 2 14 -2 0 -4 8
-8 18 -9 9 -1 22 -2 27 -3 6 -1 19 -1 30 0 15 2 13 4 -10 11 -28 7 -27 8 5 3
19 -3 51 -7 70 -8 19 -1 53 -11 76 -23 33 -16 44 -18 58 -8 15 11 15 13 1 19
-9 3 -13 2 -10 -4 10 -16 -8 -12 -61 15 -27 14 -55 25 -62 25 -7 0 -11 4 -8 9
7 11 -48 22 -71 15 -15 -5 -16 -4 -3 5 12 9 11 11 -8 11 -13 0 -21 4 -18 9 4
7 -42 25 -94 37 -3 0 -23 9 -45 19 -22 10 -50 18 -63 17 -15 -1 -21 2 -16 10
4 6 3 8 -3 5 -6 -4 -24 0 -39 8 -16 8 -40 15 -54 15 -15 0 -30 4 -35 9 -11 11
-87 32 -125 34 -14 1 -35 8 -47 15 -12 7 -35 14 -50 16 -75 10 -112 19 -108
26 8 12 -98 29 -118 19 -12 -7 -17 -6 -15 3 2 8 -15 15 -47 19 -27 4 -63 11
-80 15 -16 4 -43 7 -60 6 -23 -1 -26 1 -15 8 12 8 10 10 -10 11 -55 2 -207 25
-260 39 -19 5 -61 11 -92 14 -49 3 -58 1 -59 -12 0 -13 -2 -13 -9 3 -7 18 -8
19 -15 2 -4 -9 -5 -29 -3 -42 3 -14 1 -25 -4 -25 -5 0 -8 21 -7 48 l3 47 -44
1 c-25 1 -79 -6 -120 -16z m320 -30 c0 -5 -5 -10 -11 -10 -5 0 -7 5 -4 10 3 6
8 10 11 10 2 0 4 -4 4 -10z m-435 -10 c13 -6 15 -9 5 -9 -8 0 -22 4 -30 9 -18
12 -2 12 25 0z m317 -25 c3 -13 1 -22 -3 -19 -9 5 -13 44 -5 44 2 0 6 -11 8
-25z m68 13 c0 -4 -4 -8 -9 -8 -6 0 -12 4 -15 8 -3 5 1 9 9 9 8 0 15 -4 15 -9z
m137 6 c-3 -3 -12 -4 -19 -1 -8 3 -5 6 6 6 11 1 17 -2 13 -5z m-580 -10 c-3
-3 -12 -4 -19 -1 -8 3 -5 6 6 6 11 1 17 -2 13 -5z m568 -8 l40 -12 -47 0 c-25
1 -41 4 -35 8 5 3 -1 8 -14 11 -18 3 -19 4 -4 5 11 0 38 -5 60 -12z m83 7
c-10 -2 -28 -2 -40 0 -13 2 -5 4 17 4 22 1 32 -1 23 -4z m-168 -7 c0 -3 -4 -8
-10 -11 -5 -3 -10 -1 -10 4 0 6 5 11 10 11 6 0 10 -2 10 -4z m205 -6 c-11 -5
-33 -8 -50 -8 -29 1 -29 1 5 8 49 10 69 10 45 0z m-343 -193 c2 -70 0 -127 -4
-127 -5 0 -7 69 -7 153 2 173 7 162 11 -26z m15 6 c-2 -32 -3 -8 -3 52 0 61 1
87 3 58 2 -29 2 -78 0 -110z m-760 121 c-3 -3 -12 -4 -19 -1 -8 3 -5 6 6 6 11
1 17 -2 13 -5z m50 0 c-3 -3 -12 -4 -19 -1 -8 3 -5 6 6 6 11 1 17 -2 13 -5z
m1258 -4 c-3 -5 -13 -10 -21 -10 -8 0 -14 5 -14 10 0 6 9 10 21 10 11 0 17 -4
14 -10z m62 3 c-9 -2 -15 -9 -12 -14 4 -5 2 -9 -4 -9 -5 0 -12 4 -15 9 -7 10
11 20 34 19 10 0 9 -2 -3 -5z m90 1 c-3 -3 -12 -4 -19 -1 -8 3 -5 6 6 6 11 1
17 -2 13 -5z m-97 -63 c0 -6 -9 -9 -19 -8 -11 0 -17 5 -15 9 7 11 34 10 34 -1z
m7 -57 c-3 -3 -12 -4 -19 -1 -8 3 -5 6 6 6 11 1 17 -2 13 -5z m-47 -8 c0 -2
-11 -6 -25 -8 -14 -3 -25 -1 -25 3 0 5 11 9 25 9 14 0 25 -2 25 -4z m-1890
-20 c0 -2 -7 -7 -16 -10 -8 -3 -12 -2 -9 4 6 10 25 14 25 6z m-51 -25 c9 -6
10 -11 2 -15 -13 -8 -31 1 -31 15 0 11 11 11 29 0z m2018 -17 c-3 -3 -12 -4
-19 -1 -8 3 -5 6 6 6 11 1 17 -2 13 -5z m130 0 c-3 -3 -12 -4 -19 -1 -8 3 -5
6 6 6 11 1 17 -2 13 -5z m-2366 -67 c-10 -9 -11 -8 -5 6 3 10 9 15 12 12 3 -3
0 -11 -7 -18z m75 -16 c-18 -7 -66 -3 -66 5 0 2 19 4 43 3 30 0 36 -3 23 -8z
m1224 -1 c-8 -5 -22 -9 -30 -9 -10 0 -8 3 5 9 27 12 43 12 25 0z m-1307 -7
c-7 -2 -21 -2 -30 0 -10 3 -4 5 12 5 17 0 24 -2 18 -5z m3170 0 c-7 -2 -19 -2
-25 0 -7 3 -2 5 12 5 14 0 19 -2 13 -5z m-2296 -39 c-3 -3 -12 -4 -19 -1 -8 3
-5 6 6 6 11 1 17 -2 13 -5z m1316 -1 c-7 -2 -19 -2 -25 0 -7 3 -2 5 12 5 14 0
19 -2 13 -5z m454 1 c-3 -3 -12 -4 -19 -1 -8 3 -5 6 6 6 11 1 17 -2 13 -5z
m-267 -64 c0 -5 -8 -10 -17 -10 -15 0 -16 2 -3 10 19 12 20 12 20 0z m-13
-102 c-3 -8 -6 -5 -6 6 -1 11 2 17 5 13 3 -3 4 -12 1 -19z m-1350 -84 c-3 -3
-12 -4 -19 -1 -8 3 -5 6 6 6 11 1 17 -2 13 -5z m73 -28 c0 -11 -19 -15 -25 -6
-3 5 1 10 9 10 9 0 16 -2 16 -4z m845 -46 c3 -6 -1 -7 -9 -4 -18 7 -21 14 -7
14 6 0 13 -4 16 -10z m-745 -11 c0 -5 5 -7 12 -3 8 5 9 2 5 -10 -4 -10 -7 -22
-7 -27 0 -6 -4 -8 -10 -4 -5 3 -7 12 -3 20 3 8 0 15 -6 15 -6 0 -11 5 -11 10
0 6 5 10 10 10 6 0 10 -5 10 -11z m720 -3 c0 -2 -7 -7 -16 -10 -8 -3 -12 -2
-9 4 6 10 25 14 25 6z m-677 -36 c-3 -11 -7 -20 -9 -20 -2 0 -4 9 -4 20 0 11
4 20 9 20 5 0 7 -9 4 -20z m682 -4 c-10 -7 -15 -18 -11 -24 4 -7 2 -12 -3 -12
-17 0 -13 32 6 46 10 7 20 10 22 8 3 -2 -4 -10 -14 -18z m-35 10 c0 -3 -4 -8
-10 -11 -5 -3 -10 -1 -10 4 0 6 5 11 10 11 6 0 10 -2 10 -4z m-13 -48 c-3 -8
-6 -5 -6 6 -1 11 2 17 5 13 3 -3 4 -12 1 -19z m-80 -14 c-3 -3 -12 -4 -19 -1
-8 3 -5 6 6 6 11 1 17 -2 13 -5z m-412 -64 c-3 -5 -14 -10 -23 -9 -14 0 -13 2
3 9 27 11 27 11 20 0z m292 -16 c-3 -3 -12 -4 -19 -1 -8 3 -5 6 6 6 11 1 17
-2 13 -5z"/>
<path d="M4768 2233 c6 -2 18 -2 25 0 6 3 1 5 -13 5 -14 0 -19 -2 -12 -5z"/>
<path d="M4430 2200 c0 -12 24 -12 60 0 21 7 19 8 -17 9 -24 1 -43 -3 -43 -9z"/>
<path d="M4525 2200 c-3 -6 1 -7 9 -4 18 7 21 14 7 14 -6 0 -13 -4 -16 -10z"/>
<path d="M4615 2200 c-3 -5 -2 -10 4 -10 5 0 13 5 16 10 3 6 2 10 -4 10 -5 0
-13 -4 -16 -10z"/>
<path d="M4551 2189 c-13 -5 -33 -7 -45 -4 -17 5 -18 4 -6 -4 13 -10 13 -12 0
-21 -23 -15 2 -11 30 5 29 17 44 19 35 5 -3 -6 1 -7 10 -3 12 4 13 8 5 13 -9
6 -9 9 1 13 8 3 10 5 4 6 -5 0 -21 -5 -34 -10z"/>
<path d="M4410 2151 c0 -25 -4 -31 -21 -31 -11 0 -18 4 -15 9 9 14 -4 41 -20
41 -8 0 -14 -6 -14 -14 0 -8 -3 -21 -6 -30 -4 -10 0 -15 13 -15 41 -2 69 -7
81 -14 7 -5 12 -4 12 2 0 6 -6 11 -12 11 -9 0 -9 3 -3 8 15 10 13 54 -2 59 -9
3 -13 -6 -13 -26z"/>
<path d="M4530 2150 c-9 -6 -10 -10 -3 -10 6 0 15 5 18 10 8 12 4 12 -15 0z"/>
<path d="M5858 2150 c12 -5 30 -6 39 -3 12 5 14 3 8 -8 -4 -8 -5 -11 -1 -7 5
4 19 3 32 -2 13 -5 24 -6 24 -1 0 13 -29 22 -80 26 -34 3 -40 2 -22 -5z"/>
<path d="M6025 2140 c-3 -6 1 -7 9 -4 18 7 21 14 7 14 -6 0 -13 -4 -16 -10z"/>
<path d="M4455 2120 c-3 -5 -2 -10 4 -10 5 0 13 5 16 10 3 6 2 10 -4 10 -5 0
-13 -4 -16 -10z"/>
<path d="M2855 2109 c-20 -5 -8 -7 39 -3 38 2 72 6 74 9 8 8 -80 4 -113 -6z"/>
<path d="M2988 2103 c7 -3 16 -2 19 1 4 3 -2 6 -13 5 -11 0 -14 -3 -6 -6z"/>
<path d="M4090 2097 c9 -7 26 -23 38 -36 l22 -25 0 23 c0 12 -4 20 -9 17 -4
-3 -16 3 -26 14 -10 11 -23 20 -29 20 -6 0 -4 -6 4 -13z"/>
<path d="M6048 2103 c7 -3 16 -2 19 1 4 3 -2 6 -13 5 -11 0 -14 -3 -6 -6z"/>
<path d="M2778 2093 c7 -3 16 -2 19 1 4 3 -2 6 -13 5 -11 0 -14 -3 -6 -6z"/>
<path d="M4294 2056 c-7 -33 -7 -45 0 -43 6 2 10 13 8 23 -2 18 -2 18 13 0 11
-15 15 -16 15 -5 0 8 -4 19 -9 25 -5 5 -11 17 -13 28 -1 10 -8 -2 -14 -28z"/>
<path d="M2728 2083 c7 -3 16 -2 19 1 4 3 -2 6 -13 5 -11 0 -14 -3 -6 -6z"/>
<path d="M2327 2069 c7 -7 15 -10 18 -7 3 3 -2 9 -12 12 -14 6 -15 5 -6 -5z"/>
<path d="M6925 1986 c45 -14 91 -22 104 -19 16 4 22 2 17 -5 -7 -11 67 -28 83
-18 5 4 12 2 16 -4 3 -5 25 -10 48 -10 39 1 41 2 23 15 -11 9 -29 12 -43 9
-16 -4 -23 -2 -21 6 3 15 -56 34 -83 27 -10 -3 -20 0 -21 5 -2 6 -48 12 -103
15 l-100 3 80 -24z"/>
<path d="M1330 1974 c-166 -19 -250 -34 -250 -46 0 -6 -10 -8 -24 -4 -13 3
-37 -1 -52 -9 -16 -8 -35 -15 -43 -15 -8 0 -32 -9 -55 -19 -23 -11 -62 -27
-88 -37 -27 -9 -48 -21 -48 -25 0 -14 18 -11 23 4 7 20 17 3 11 -20 -6 -23
-38 -28 -61 -10 -16 12 -46 -10 -36 -26 4 -7 0 -8 -12 -3 -15 5 -16 4 -5 -9
11 -13 15 -13 21 -3 7 10 11 9 21 -3 19 -24 60 -32 168 -32 52 0 84 -3 70 -7
l-25 -6 23 -8 c13 -4 21 -10 18 -13 -3 -3 -16 1 -28 9 -14 9 -33 12 -48 8
l-25 -6 23 -13 c13 -7 30 -10 37 -7 8 3 28 1 46 -4 18 -5 44 -7 57 -3 23 5 24
7 8 19 -16 11 -15 13 17 19 19 4 43 5 54 2 10 -3 0 -5 -21 -6 -46 -1 -40 -14
7 -17 18 -1 41 -4 52 -7 30 -7 66 9 59 28 -3 8 -13 15 -21 15 -9 0 -13 -6 -10
-15 8 -19 -5 -26 -23 -12 -18 14 -23 47 -6 42 6 -2 27 -6 46 -9 33 -5 34 -5
16 9 -18 13 -18 15 -3 15 10 0 20 -7 24 -15 5 -13 8 -13 20 5 33 46 46 5 16
-51 -10 -17 -31 -45 -47 -60 l-29 -29 27 2 c14 1 26 5 26 9 0 4 7 10 16 13 8
3 12 2 9 -4 -4 -6 5 -5 19 2 14 6 26 15 26 20 0 4 3 7 8 6 14 -4 62 34 55 45
-4 6 0 8 10 4 10 -3 17 -3 17 1 0 4 14 22 31 40 16 17 28 36 25 41 -3 5 1 15
10 22 15 12 49 72 54 94 1 6 6 20 11 33 5 13 9 29 9 37 0 18 -23 32 -28 17 -2
-7 -10 -12 -18 -12 -9 0 -12 5 -9 10 8 12 -26 11 -175 -6z m198 -26 c-11 -32
-121 -57 -324 -75 -80 -7 -108 -5 -164 15 -22 8 64 20 142 21 85 1 290 29 303
42 14 14 47 11 43 -3z m-518 -72 c0 -3 -4 -8 -10 -11 -5 -3 -10 -1 -10 4 0 6
5 11 10 11 6 0 10 -2 10 -4z m477 -48 c-3 -8 -6 -5 -6 6 -1 11 2 17 5 13 3 -3
4 -12 1 -19z m-637 8 c0 -11 -19 -15 -25 -6 -3 5 1 10 9 10 9 0 16 -2 16 -4z
m447 -32 c-3 -3 -12 -4 -19 -1 -8 3 -5 6 6 6 11 1 17 -2 13 -5z m-547 -33 c15
-29 12 -33 -10 -14 -21 19 -26 33 -10 33 5 0 14 -9 20 -19z m245 9 c-8 -13
-54 -17 -58 -6 -3 7 9 11 29 12 18 0 31 -2 29 -6z m-155 -30 c0 -5 -5 -10 -11
-10 -5 0 -7 5 -4 10 3 6 8 10 11 10 2 0 4 -4 4 -10z m580 -30 c0 -5 -2 -10 -4
-10 -3 0 -8 5 -11 10 -3 6 -1 10 4 10 6 0 11 -4 11 -10z m-90 -30 c0 -5 -5
-12 -11 -16 -12 -7 -31 15 -23 28 6 9 34 -1 34 -12z"/>
<path d="M6780 1953 c0 -19 3 -24 9 -15 7 11 9 11 14 -2 3 -8 1 -16 -5 -18 -7
-3 -6 -9 3 -19 18 -20 37 -49 49 -77 5 -13 14 -21 19 -18 5 3 15 -2 22 -11 12
-14 12 -16 -1 -8 -8 4 -2 -6 14 -23 16 -17 34 -29 39 -25 6 3 7 1 4 -4 -4 -6
9 -20 29 -32 38 -23 48 -26 40 -12 -4 5 0 11 6 14 8 3 1 10 -15 16 -16 6 -25
15 -22 21 8 13 55 13 55 -1 0 -5 4 -8 9 -5 4 3 17 -4 27 -15 10 -11 24 -17 31
-14 8 2 11 0 8 -5 -7 -12 12 -13 170 -12 169 2 316 9 322 16 4 3 -7 7 -23 7
-28 2 -28 2 6 9 19 4 26 8 15 9 -17 1 -18 3 -5 11 13 8 12 10 -3 10 -9 0 -16
6 -15 13 2 6 -5 11 -14 9 -10 -2 -18 3 -18 11 0 7 -15 18 -34 25 -18 7 -41 21
-50 31 -11 12 -25 17 -38 13 -16 -4 -19 -2 -13 8 5 9 4 11 -4 6 -6 -4 -18 0
-27 8 -8 9 -28 16 -43 16 -187 0 -270 9 -363 38 -54 17 -111 29 -128 27 -18
-2 -29 1 -27 8 1 6 -8 13 -20 15 -19 3 -23 -1 -23 -25z m192 -160 c21 -18 23
-33 6 -33 -14 0 -48 30 -48 42 0 13 22 9 42 -9z m546 -90 c-10 -2 -26 -2 -35
0 -10 3 -2 5 17 5 19 0 27 -2 18 -5z"/>
<path d="M670 1708 c0 -11 52 -10 69 1 10 6 1 9 -27 8 -23 -1 -42 -5 -42 -9z"/>
<path d="M6180 1296 c0 -75 -4 -136 -8 -136 -4 0 -25 9 -47 20 -73 37 -183 22
-232 -31 -62 -68 -85 -219 -49 -327 39 -115 160 -164 272 -107 59 30 60 30 67
4 4 -16 12 -20 39 -17 l33 3 0 360 0 360 -37 3 -38 3 0 -135z m-65 -190 c50
-33 59 -69 56 -219 -1 -54 -51 -106 -108 -114 -96 -13 -142 44 -143 172 0 81
28 151 70 173 30 16 92 10 125 -12z"/>
<path d="M1835 1397 c-3 -6 -4 -165 -3 -352 l3 -340 29 -3 c16 -2 32 2 37 10
5 7 9 83 9 169 l0 155 33 31 c58 55 111 68 154 38 34 -24 43 -76 43 -242 l0
-151 30 -7 c16 -4 34 -4 40 0 14 8 13 328 -1 378 -5 21 -23 52 -38 69 -25 28
-36 32 -94 36 -57 4 -72 1 -113 -22 -25 -14 -48 -26 -50 -26 -2 0 -4 54 -4
119 0 95 -3 123 -16 135 -19 19 -53 21 -59 3z"/>
<path d="M2605 1397 c-3 -6 -4 -165 -3 -352 l3 -340 35 0 35 0 3 118 c3 122
12 142 41 95 33 -53 167 -209 184 -214 27 -9 67 4 67 21 0 8 -46 69 -101 135
l-102 121 97 90 c78 73 94 94 85 105 -6 8 -19 14 -28 14 -28 0 -102 -53 -165
-118 -33 -34 -63 -59 -68 -56 -4 3 -8 90 -8 194 0 162 -2 189 -16 194 -26 10
-54 7 -59 -7z"/>
<path d="M3452 1393 c-5 -10 -8 -34 -8 -53 1 -19 3 -168 4 -331 l2 -297 28 -4
c52 -7 52 -7 52 160 0 137 3 161 19 186 45 67 127 87 173 41 34 -33 38 -60 38
-236 l0 -149 41 0 41 0 -4 188 c-3 186 -3 189 -30 229 -47 71 -155 84 -238 29
l-40 -26 0 121 c0 66 -5 129 -10 140 -13 24 -56 25 -68 2z"/>
<path d="M5055 1384 c-41 -41 15 -111 69 -86 21 9 26 19 26 46 0 25 -6 38 -19
46 -28 15 -57 12 -76 -6z"/>
<path d="M1420 1359 c-68 -30 -85 -60 -85 -146 0 -68 2 -74 35 -109 19 -20 68
-52 107 -71 133 -62 174 -120 138 -196 -33 -70 -138 -87 -237 -37 -25 12 -54
20 -62 17 -46 -18 11 -87 87 -108 55 -15 173 -7 214 14 54 28 86 81 91 148 2
32 1 70 -2 84 -12 48 -73 102 -164 145 -48 23 -95 51 -104 63 -26 33 -23 89 6
116 36 34 81 36 159 7 l68 -25 10 27 c9 23 7 30 -15 48 -27 24 -104 44 -164
44 -20 -1 -57 -10 -82 -21z"/>
<path d="M2370 1360 c-11 -11 -20 -27 -20 -35 0 -45 80 -73 100 -36 35 66 -29
122 -80 71z"/>
<path d="M4555 1348 c-3 -13 -4 -162 -3 -333 l3 -310 37 -3 37 -3 3 148 3 148
130 0 130 0 3 32 3 32 -133 3 -133 3 0 115 0 115 146 3 c131 2 148 5 164 22
15 16 15 22 5 35 -10 12 -45 15 -201 15 -187 0 -189 0 -194 -22z"/>
<path d="M6550 1201 c-120 -25 -178 -123 -168 -289 8 -134 68 -204 189 -218
67 -8 158 10 193 37 53 42 18 70 -54 44 -60 -21 -138 -19 -177 5 -42 25 -61
56 -65 105 l-3 40 159 7 c91 4 163 11 170 18 16 16 8 99 -15 147 -26 54 -70
89 -129 102 -50 12 -50 12 -100 2z m118 -87 c27 -17 56 -79 48 -100 -4 -11
-32 -14 -126 -14 -119 0 -120 0 -120 24 0 12 10 38 23 57 38 57 116 71 175 33z"/>
<path d="M3155 1191 c-73 -18 -115 -63 -115 -123 0 -75 32 -110 135 -149 60
-22 85 -49 85 -90 0 -58 -75 -82 -157 -50 -47 18 -54 19 -68 5 -58 -58 130
-111 232 -65 51 24 73 63 73 131 0 66 -28 96 -127 134 -39 15 -77 33 -83 41
-19 22 -7 66 23 89 25 18 31 19 70 7 70 -20 81 -22 97 -12 11 8 12 15 4 28
-28 45 -105 70 -169 54z"/>
<path d="M4084 1191 c-54 -13 -119 -55 -119 -76 0 -27 43 -32 85 -10 17 9 53
19 80 22 45 5 51 3 79 -25 24 -24 31 -39 31 -71 0 -46 -1 -46 -108 -55 -130
-9 -205 -92 -172 -188 20 -56 56 -81 127 -86 48 -3 66 1 105 21 44 24 46 25
51 6 4 -14 14 -19 41 -19 l36 0 0 188 c0 162 -2 192 -18 222 -34 64 -124 93
-218 71z m156 -305 c0 -49 -24 -87 -70 -111 -75 -39 -153 15 -127 89 13 37 75
65 145 66 l52 0 0 -44z"/>
<path d="M5067 1193 c-4 -3 -7 -116 -7 -250 0 -224 1 -243 18 -245 33 -3 56 3
64 15 13 21 10 461 -4 475 -13 13 -60 16 -71 5z"/>
<path d="M5447 1179 c-34 -18 -39 -18 -59 -4 -13 8 -35 15 -50 15 l-28 0 0
-246 0 -245 38 3 37 3 3 176 2 176 35 33 c26 26 45 34 83 38 41 3 53 0 78 -21
l29 -25 5 -189 5 -188 43 -3 44 -3 -4 199 -3 199 -28 36 c-15 21 -41 44 -57
52 -41 21 -127 18 -173 -6z"/>
<path d="M7085 1186 c-17 -7 -36 -20 -44 -29 -19 -23 -29 -21 -33 6 -2 18 -10
23 -40 25 l-38 3 0 -245 c0 -176 3 -245 12 -248 6 -2 24 -2 39 0 l27 4 4 156
c3 135 6 162 23 190 28 47 76 74 122 70 33 -3 38 0 41 20 8 52 -49 76 -113 48z"/>
<path d="M2372 943 l3 -238 35 0 35 0 0 235 0 235 -38 3 -37 3 2 -238z"/>
</g>
</svg>
